HIERARCHY
ROOT Hips
{
  OFFSET -339.324 82.5146 320.513
  CHANNELS 6 Xposition Yposition Zposition Zrotation Xrotation Yrotation
  JOINT ToSpine
  {
    OFFSET -0.0105055 1.38907 -7.13956
    CHANNELS 3 Zrotation Xrotation Yrotation
    JOINT Spine
    {
      OFFSET 0.0105055 10 1
      CHANNELS 3 Zrotation Xrotation Yrotation
      JOINT Spine1
      {
        OFFSET 0 12 1.60637
        CHANNELS 3 Zrotation Xrotation Yrotation
        JOINT Neck
        {
          OFFSET 0 27 2.26658
          CHANNELS 3 Zrotation Xrotation Yrotation
          JOINT Head
          {
            OFFSET 0 9 2.12705
            CHANNELS 3 Zrotation Xrotation Yrotation
            End Site
            {
              OFFSET 0 11 2
            }
          }
        }
        JOINT LeftShoulder
        {
          OFFSET 8 19.6109 2.86452
          CHANNELS 3 Zrotation Xrotation Yrotation
          JOINT LeftArm
          {
            OFFSET 12 1 0.681055
            CHANNELS 3 Zrotation Xrotation Yrotation
            JOINT LeftForeArm
            {
              OFFSET 19 0 -1.52608
              CHANNELS 3 Zrotation Xrotation Yrotation
              JOINT LeftHand
              {
                OFFSET 23 0 0
                CHANNELS 3 Zrotation Xrotation Yrotation
                End Site
                {
                  OFFSET 10 0 0
                }
              }
            }
          }
        }
        JOINT RightShoulder
        {
          OFFSET -8 19.6109 2.86452
          CHANNELS 3 Zrotation Xrotation Yrotation
          JOINT RightArm
          {
            OFFSET -12 1 0.681055
            CHANNELS 3 Zrotation Xrotation Yrotation
            JOINT RightForeArm
            {
              OFFSET -19 0 -1.52608
              CHANNELS 3 Zrotation Xrotation Yrotation
              JOINT RightHand
              {
                OFFSET -23 0 0
                CHANNELS 3 Zrotation Xrotation Yrotation
                End Site
                {
                  OFFSET -10 0 0
                }
              }
            }
          }
        }
      }
    }
  }
  JOINT LeftUpLeg
  {
    OFFSET 9 -7.17245 0
    CHANNELS 3 Zrotation Xrotation Yrotation
    JOINT LeftLeg
    {
      OFFSET 0 -44.1113 0
      CHANNELS 3 Zrotation Xrotation Yrotation
      JOINT LeftFoot
      {
        OFFSET 0 -36.1829 0
        CHANNELS 3 Zrotation Xrotation Yrotation
        JOINT LeftToeBase
        {
          OFFSET 0 -4.84184 13
          CHANNELS 3 Zrotation Xrotation Yrotation
          End Site
          {
            OFFSET 0 1 6
          }
        }
      }
    }
  }
  JOINT RightUpLeg
  {
    OFFSET -9 -7.17245 0
    CHANNELS 3 Zrotation Xrotation Yrotation
    JOINT RightLeg
    {
      OFFSET 0 -44.0551 0
      CHANNELS 3 Zrotation Xrotation Yrotation
      JOINT RightFoot
      {
        OFFSET 0 -36.1469 0
        CHANNELS 3 Zrotation Xrotation Yrotation
        JOINT RightToeBase
        {
          OFFSET 0 -4.92256 13
          CHANNELS 3 Zrotation Xrotation Yrotation
          End Site
          {
            OFFSET 0 1 6
          }
        }
      }
    }
  }
}
MOTION
Frames:	10
Frame Time:	0.0333333
-47.5447 103.306 49.5343 -0.173621 9.86631 133.502 0 0 0 7.17568 10.9444 4.51283 -20.4913 0.559131 8.81057 -22.5588 8.54835 11.5773 -1.97437 -0.33326 3.69332 -21.1905 3.36137 -8.63748 -22.6531 12.5338 -3.04557 -3.08729 -0.956842 2.99963 2.39723 -0.0136438 -0.652095 16.8267 4.52536 15.5586 44.8892 7.19677 26.099 3.0662 -10.6781 -0.243092 -2.32249 -0.117891 5.81094 -5.989 -31.3263 -3.23049 180 87.4477 172.401 19.3036 -10.9354 1.86527 0.916226 -3.49462 -3.2805 -1.01231 4.0816 -0.985933 -0.975034 21.2978 2.23854 -20.3106 10.0542 1.80543 5.97129 -22.9231 -3.52624 
-42.8855 106.137 45.361 -1.6828 11.458 131.13 0 0 0 7.8075 10.1646 5.50121 -26.9508 1.74602 11.3342 -22.1998 10.5235 12.3296 -0.205869 -1.13819 3.88325 -15.8519 2.99209 -9.65904 -24.5967 12.1772 -0.675721 -2.74529 -2.78462 2.84776 3.022 -0.00328087 -0.124379 16.8741 4.52052 15.5039 44.0007 10.776 27.7759 3.84653 -8.65606 0.846067 -4.10488 -0.180812 5.04212 -9.09039 -34.2272 -5.06946 -6.34668e-007 85.1913 -8.4792 21.8712 -9.98701 1.93435 0.529878 -5.49581 -0.87921 -2.75671 7.14123 -0.703357 -1.91214 19.217 4.77106 -21.987 11.8231 2.30465 5.15209 -20.1112 -5.41346 
-38.6928 108.128 41.1557 -2.78366 11.7761 127.706 0 0 0 9.35851 9.99288 6.59513 -30.7251 2.15022 13.4759 -26.7324 9.39877 14.4756 2.97443 -0.832145 3.78999 -17.927 2.9603 -8.51382 -20.9752 10.923 -0.649601 -2.53282 -9.63925 4.35131 -0.346351 0.00323967 -1.07182 16.4545 4.47045 15.6044 43.9219 11.2816 28.8575 3.9064 -7.12153 1.00541 -4.38761 -0.176931 4.61616 -10.4877 -36.2022 -6.56122 2.46629e-006 77.2421 -8.03233 20.2208 -13.29 2.38014 0.505918 -0.021346 -2.11242 -4.40141 6.99252 -3.91003 -1.09798 19.2868 8.02007 -18.9551 10.8451 1.81575 5.2274 -20.3422 -5.05812 
-34.6293 109.162 36.7146 -3.32048 12.2137 124.659 0 0 0 10.1585 9.95555 7.42352 -32.4321 2.73391 14.9306 -30.3055 7.0991 16.0167 4.43506 0.580131 4.08706 -21.5731 3.09819 -7.54955 -19.2129 7.61685 0.448111 -2.01726 -9.42025 4.64961 -0.652442 0.00415879 -0.73041 16.5116 4.56291 15.9492 44.294 10.6341 28.5616 3.84373 -8.75137 0.381734 -4.25768 -0.192658 5.17931 -12.0179 -35.8052 -8.35198 -9.34166e-009 68.618 -0.765904 17.5444 -18.2803 2.84445 0.445236 2.56412 -2.34682 -5.48566 7.09283 -7.25361 -0.707748 17.5183 4.9251 -13.7383 10.1506 1.22597 5.34393 -20.4499 -3.60735 
-30.4096 108.96 32.4067 -3.17711 12.6714 121.365 0 0 0 10.6001 10.566 7.99582 -33.4551 2.91359 15.9113 -32.0044 4.89888 17.1042 5.4432 1.55148 4.78568 -22.5902 3.08383 -7.13565 -22.1911 6.05485 3.85422 -1.38532 -11.9187 3.01883 1.06333 -0.010435 -1.12447 16.4258 4.59189 16.1359 45.389 9.63969 28.1554 3.6315 -10.3787 -0.976926 -2.68723 -0.138175 5.88595 -12.3599 -34.3577 -8.29969 -1.47823e-008 60.2306 6.46019 19.1326 -18.8889 3.2117 0.886835 -2.72131 -3.28103 -5.72827 7.97472 -8.41619 -1.26653 13.2277 1.44101 -10.9915 6.98679 0.673052 4.92041 -18.8865 -4.35451 
-26.2181 107.527 27.9591 -4.51588 12.9108 118.84 0 0 0 10.7186 9.87507 8.11514 -34.448 2.61984 16.1632 -33.5703 3.21966 18.7906 7.07285 1.19657 5.98406 -23.1754 2.99012 -6.62093 -26.9009 5.76165 7.85002 -1.49443 -14.6788 0.169975 1.25827 -0.0140404 -1.27856 16.211 4.69896 16.7542 46.1617 9.98442 26.9605 3.72083 -11.4916 -1.25106 -1.85691 -0.0853158 5.26077 -13.1953 -35.0781 -8.21834 -3.33324e-007 53.6454 5.96921 18.5649 -20.773 3.43183 0.732636 2.07767 -3.38532 -6.7828 7.57645 -9.0866 -0.847431 7.55616 -2.27294 -14.7345 5.67992 0.734982 5.41123 -20.562 -2.99465 
-21.8706 105.203 23.345 -4.78486 12.479 116.716 0 0 0 12.325 9.86869 7.68412 -35.3449 1.57072 15.7362 -32.2632 2.90279 19.2919 6.03783 1.20084 7.25853 -23.2492 2.99568 -6.61576 -32.192 4.31812 10.6304 -1.20854 -15.8716 0.376869 0.768101 -0.00814806 -0.962339 17.8747 5.24078 17.6582 45.5387 10.7324 24.8517 4.07522 -12.4153 -1.12798 -2.69184 -0.151529 6.4426 -12.1026 -34.9632 -5.53054 1.27538e-008 46.0942 -0.43045 20.8826 -19.9552 3.71366 0.533611 -1.89044 -1.83901 -6.86319 6.53122 -9.10485 -1.72073 6.5859 -3.51016 -11.1127 4.53283 0.441188 4.59013 -17.185 -1.93583 
-17.5096 101.881 18.5253 -4.36664 11.5657 114.524 0 0 0 13.4708 9.99266 7.52818 -32.979 1.40391 14.989 -32.8528 0.42083 19.5017 6.62922 2.27813 7.64634 -26.9077 3.14016 -5.98158 -34.9002 2.58864 11.0344 -0.835367 -15.6629 1.35783 0.420833 -0.00282726 -0.769838 17.625 5.21519 17.7529 45.5706 11.1703 22.9084 4.28006 -12.7779 -0.330658 -2.97488 -0.167035 6.42595 -9.939 -34.7806 -1.10241 7.78836e-008 38.583 -8.08079 19.98 -20.2755 3.60802 1.19765 -5.42929 -4.35251 -6.92626 4.7544 -9.83316 -1.02372 12.7823 -2.81522 -17.9004 3.49694 0.550912 7.4697 -27.5395 -1.20192 
-13.5403 97.2889 13.9737 -3.15747 11.9312 112.951 0 0 0 13.5322 11.7722 6.85746 -31.4139 1.00623 13.8907 -30.4125 0.334906 18.6032 4.14112 0.501867 8.23704 -30.9792 3.19262 -5.10459 -36.9424 3.13619 11.2941 -0.99421 -17.5379 1.42086 1.15964 -0.00872514 -0.86214 17.4897 5.10869 17.4333 47.5132 9.39073 21.1363 3.76272 -10.4418 -0.533033 -4.15627 -0.25472 7.011 -9.16899 -34.7049 3.73764 -3.13397e-007 32.8741 -14.1136 18.5608 -19.3338 3.18874 0.729691 -6.43571 -1.65897 -7.70984 8.30212 -8.76405 -1.43146 19.7562 -8.17397 -25.0763 -14.4895 -3.23879 7.00284 -28.0543 -5.60905 
-8.94147 94.3151 9.25198 -1.82218 9.91394 112.769 0 0 0 15.6679 11.256 6.08509 -29.2366 1.49836 12.7598 -27.3905 -1.03378 17.3663 1.91279 1.23014 8.68749 -35.9412 3.06665 -3.78376 -37.2789 5.02963 10.8177 -1.75019 -18.5547 0.477893 -0.581058 0.00408045 -0.804693 16.5673 4.78189 16.8208 51.2752 7.71921 18.5081 3.3363 -11.3543 -0.408414 -4.3231 -0.224774 5.94987 -7.02808 -33.6749 5.91075 -0.481629 25.8807 -15.3303 11.5105 -16.6317 1.68801 0.861539 -3.46623 -3.02502 -7.08013 13.5487 -8.50203 -2.10666 21.3158 -6.7191 -16.4408 -26.525 -3.90038 4.77871 -18.3982 -4.93014 
